<svg width="161" height="28" viewBox="0 0 161 28" fill="none" xmlns="http://www.w3.org/2000/svg">
<g id="Vector">
<path d="M8.61416 8.165V14.3784C10.8221 13.9962 12.8785 13.1677 14.6879 11.9901V22.0865H21.2035V0H15.9058C15.2575 3.92545 12.44 7.10332 8.61416 8.165Z" fill="black"/>
<path d="M6.62595 0H0V22.0865H6.62595V0Z" fill="black"/>
<path d="M27.7192 22.3072C29.549 22.3072 31.0322 20.8239 31.0322 18.9942C31.0322 17.1645 29.549 15.6812 27.7192 15.6812C25.8895 15.6812 24.4063 17.1645 24.4063 18.9942C24.4063 20.8239 25.8895 22.3072 27.7192 22.3072Z" fill="#05D16E"/>
<path d="M37.4442 21.7466V7.57883H41.3V21.7466H37.4442ZM46.8608 21.7466V13.3892C46.8608 12.547 46.5972 11.8926 46.0681 11.423C45.5386 10.9535 44.8864 10.7188 44.1088 10.7188C43.5704 10.7188 43.0918 10.8273 42.6729 11.0415C42.254 11.2587 41.9191 11.561 41.6707 11.9512C41.4227 12.3415 41.2969 12.8228 41.2969 13.3892L39.8014 12.6555C39.8014 11.561 40.0405 10.6131 40.519 9.81201C40.9979 9.01087 41.6559 8.38875 42.4934 7.9486C43.3309 7.50842 44.2763 7.28831 45.3322 7.28831C46.3881 7.28831 47.2615 7.50842 48.069 7.9486C48.8769 8.38875 49.5229 9.00502 50.0134 9.79733C50.5009 10.5896 50.7462 11.5434 50.7462 12.6555V21.7466H46.8608ZM56.307 21.7466V13.3892C56.307 12.547 56.0438 11.8926 55.5143 11.423C54.9848 10.9535 54.333 10.7188 53.555 10.7188C53.0166 10.7188 52.5349 10.8273 52.1074 11.0415C51.6768 11.2587 51.3446 11.561 51.1052 11.9512C50.8661 12.3415 50.7462 12.8228 50.7462 13.3892L48.5327 12.8609C48.6137 11.7077 48.9155 10.7217 49.445 9.90003C49.9714 9.07836 50.6746 8.43864 51.551 7.97792C52.4274 7.52016 53.4055 7.28831 54.4825 7.28831C55.5591 7.28831 56.5017 7.50842 57.3688 7.9486C58.2363 8.38875 58.9184 9.01969 59.418 9.84132C59.9144 10.663 60.1659 11.6402 60.1659 12.7759V21.7495H56.3101L56.307 21.7466Z" fill="black"/>
<path d="M68.8044 22.041C67.4883 22.041 66.3039 21.7182 65.2449 21.0726C64.1889 20.427 63.3604 19.5525 62.7651 18.4491C62.1697 17.3458 61.8676 16.0869 61.8676 14.6812C61.8676 13.2756 62.167 12.0431 62.7651 10.928C63.3635 9.8129 64.1889 8.92963 65.2449 8.27523C66.3008 7.62083 67.4883 7.29216 68.8044 7.29216C69.8603 7.29216 70.7967 7.50931 71.6132 7.93775C72.43 8.36915 73.0818 8.94427 73.5697 9.6691C74.0572 10.3939 74.3235 11.2332 74.3621 12.1928V17.1491C74.3235 18.1058 74.0572 18.9539 73.5697 19.6845C73.0818 20.4182 72.4238 20.9963 71.5984 21.4159C70.7726 21.8356 69.8393 22.0468 68.8044 22.0468V22.041ZM69.2054 18.5812C70.363 18.5812 71.2962 18.2085 72.008 17.4661C72.7201 16.7237 73.076 15.7846 73.076 14.649C73.076 13.9065 72.9175 13.2433 72.5944 12.6535C72.2743 12.0666 71.8258 11.6088 71.2484 11.2743C70.6682 10.9427 69.9981 10.7754 69.2354 10.7754C68.4723 10.7754 67.8294 10.9427 67.252 11.2743C66.6746 11.6059 66.214 12.0666 65.8729 12.6535C65.5322 13.2404 65.3616 13.9065 65.3616 14.649C65.3616 15.3914 65.5322 16.0927 65.8729 16.6884C66.214 17.2842 66.6687 17.7478 67.2372 18.0823C67.8053 18.4139 68.4605 18.5812 69.2054 18.5812ZM73.0192 21.7475V17.9356L73.6472 14.5022L73.0192 11.0718V7.57976H76.845V21.7475H73.0192Z" fill="black"/>
<path d="M79.0926 10.8948V7.58171H89.6757V10.8948H79.0926ZM82.4426 21.7465V2.29667H86.2984V21.7465H82.4426Z" fill="black"/>
<path d="M98.2736 22.041C96.817 22.041 95.5037 21.7182 94.3282 21.0726C93.1527 20.427 92.2253 19.5437 91.5494 18.4198C90.8704 17.2959 90.5324 16.0487 90.5324 14.6812C90.5324 13.3138 90.8762 12.0109 91.5611 10.8987C92.2491 9.78651 93.1824 8.90321 94.3582 8.26055C95.5337 7.61497 96.8497 7.29216 98.3036 7.29216C99.4194 7.29216 100.46 7.4917 101.427 7.89375C102.389 8.29576 103.224 8.8856 103.921 9.6691L101.409 12.1341C101.029 11.6851 100.577 11.3506 100.047 11.1363C99.518 10.9192 98.9378 10.8136 98.3005 10.8136C97.5439 10.8136 96.8797 10.9808 96.3113 11.3124C95.7431 11.644 95.2973 12.096 94.9804 12.6623C94.6603 13.2286 94.5015 13.9036 94.5015 14.6871C94.5015 15.4706 94.6603 16.0898 94.9804 16.665C95.3004 17.243 95.7431 17.6979 96.3113 18.0295C96.8797 18.364 97.5408 18.5284 98.3005 18.5284C98.9378 18.5284 99.5269 18.4168 100.062 18.1909C100.601 17.9649 101.07 17.6275 101.468 17.1785L103.948 19.6728C103.23 20.4358 102.396 21.0227 101.438 21.4306C100.481 21.8414 99.4253 22.0468 98.2705 22.0468L98.2736 22.041Z" fill="black"/>
<path d="M105.965 21.7476V0H109.821V21.7476H105.965ZM115.681 21.7476V13.6249C115.681 12.7651 115.412 12.0667 114.873 11.5267C114.335 10.9897 113.638 10.7197 112.779 10.7197C112.181 10.7197 111.664 10.843 111.224 11.0865C110.784 11.3301 110.44 11.6734 110.192 12.1136C109.943 12.5538 109.818 13.0585 109.818 13.6249L108.322 12.8619C108.322 11.7673 108.562 10.8048 109.04 9.97435C109.519 9.1439 110.18 8.48657 111.029 8.00825C111.876 7.52993 112.839 7.28928 113.916 7.28928C114.993 7.28928 115.983 7.52407 116.83 7.99357C117.676 8.46311 118.343 9.11162 118.831 9.94503C119.318 10.7784 119.563 11.7292 119.563 12.8032V21.7476H115.678H115.681Z" fill="black"/>
<path d="M122.733 21.7483V7.58061H126.589V21.7483H122.733Z" fill="black"/>
<path d="M130.065 21.7466V7.57883H133.921V21.7466H130.065ZM139.781 21.7466V13.6239C139.781 12.7641 139.512 12.0657 138.973 11.5258C138.435 10.9887 137.738 10.7188 136.88 10.7188C136.281 10.7188 135.764 10.842 135.324 11.0856C134.884 11.3291 134.54 11.6725 134.292 12.1126C134.044 12.5528 133.918 13.0576 133.918 13.6239L132.423 12.8609C132.423 11.7664 132.662 10.8039 133.14 9.97337C133.619 9.14293 134.292 8.48559 135.156 8.00727C136.021 7.52895 137.005 7.28831 138.103 7.28831C139.201 7.28831 140.107 7.54655 140.942 8.06598C141.779 8.58536 142.44 9.26912 142.931 10.1201C143.421 10.9711 143.664 11.8661 143.664 12.8022V21.7466H139.778H139.781Z" fill="black"/>
<path d="M152.665 21.3945C151.387 21.3945 150.233 21.0863 149.195 20.4701C148.16 19.8538 147.346 19.0087 146.76 17.9347C146.17 16.8577 145.877 15.6575 145.877 14.3282C145.877 12.9989 146.17 11.8016 146.76 10.7364C147.349 9.67113 148.153 8.82894 149.183 8.2127C150.208 7.59644 151.381 7.28831 152.695 7.28831C153.771 7.28831 154.716 7.4996 155.533 7.91925C156.35 8.33887 156.999 8.9111 157.477 9.633C157.956 10.3578 158.216 11.2088 158.255 12.186V16.5261C158.216 17.4652 157.956 18.3044 157.477 19.0498C156.999 19.7922 156.344 20.3674 155.506 20.7782C154.669 21.189 153.72 21.3945 152.667 21.3945H152.665ZM152.874 27.9941C151.321 27.9941 149.954 27.7242 148.779 27.1901C147.603 26.6502 146.676 25.9048 145.997 24.9452L148.42 22.5712C148.976 23.1962 149.604 23.6804 150.304 24.0238C151.001 24.3642 151.848 24.5373 152.844 24.5373C154.041 24.5373 155.001 24.2292 155.73 23.6129C156.457 22.9967 156.822 22.1604 156.822 21.1039V17.5561L157.451 14.4485L156.852 11.3409V7.58469H160.648V21.0482C160.648 22.4362 160.313 23.654 159.646 24.6987C158.979 25.7434 158.061 26.5562 156.897 27.1343C155.73 27.7095 154.391 28 152.874 28V27.9941ZM153.167 17.9611C153.939 17.9611 154.603 17.8085 155.165 17.5033C155.728 17.1981 156.164 16.7755 156.478 16.2327C156.789 15.6898 156.924 15.0559 156.924 14.3282C156.924 13.6004 156.852 13.0546 156.496 12.453C156.182 11.9189 155.76 11.4876 155.201 11.1824C154.639 10.8772 153.972 10.7246 153.203 10.7246C152.434 10.7246 151.791 10.8772 151.22 11.1824C150.648 11.4876 150.2 11.916 149.877 12.4677C149.554 13.0194 149.392 13.6386 149.392 14.3282C149.392 15.0178 149.547 15.6429 149.862 16.2033C150.173 16.7638 150.615 17.1981 151.19 17.5033C151.761 17.8085 152.422 17.9611 153.173 17.9611H153.167Z" fill="black"/>
<path d="M124.668 4.48127C125.897 4.48127 126.893 3.50379 126.893 2.29801C126.893 1.09222 125.897 0.114743 124.668 0.114743C123.439 0.114743 122.443 1.09222 122.443 2.29801C122.443 3.50379 123.439 4.48127 124.668 4.48127Z" fill="black"/>
</g>
</svg>
