<svg width="32" height="32" viewBox="0 0 32 32" fill="none" xmlns="http://www.w3.org/2000/svg">
<g id="Shape">
<g id="Vector">
<path d="M16.0668 26.8002C10.1468 26.8002 5.3335 21.9868 5.3335 16.0668C5.3335 10.1468 10.1468 5.3335 16.0668 5.3335C21.9868 5.3335 26.8002 10.1468 26.8002 16.0668C26.8002 21.9868 21.9868 26.8002 16.0668 26.8002ZM16.0668 6.80016C10.9602 6.80016 6.80016 10.9602 6.80016 16.0668C6.80016 21.1735 10.9602 25.3335 16.0668 25.3335C21.1735 25.3335 25.3335 21.1735 25.3335 16.0668C25.3335 10.9602 21.1735 6.80016 16.0668 6.80016Z" fill="#333436"/>
<path d="M16.8002 14.5668H15.3335V21.5668H16.8002V14.5668Z" fill="#333436"/>
<path d="M16.8002 10.5668H15.3335V12.5668H16.8002V10.5668Z" fill="#333436"/>
</g>
</g>
</svg>
