<svg width="32" height="32" viewBox="0 0 32 32" fill="none" xmlns="http://www.w3.org/2000/svg">
<g id="Shape">
<g id="Vector">
<path d="M22.0002 22.0668H10.0002C9.5935 22.0668 9.26683 21.7402 9.26683 21.3335V14.0002C9.26683 10.2868 12.2868 7.26683 16.0002 7.26683C19.7135 7.26683 22.7335 10.2868 22.7335 14.0002V21.3335C22.7335 21.7402 22.4068 22.0668 22.0002 22.0668ZM10.7335 20.6002H21.2668V14.0002C21.2668 11.0935 18.9068 8.7335 16.0002 8.7335C13.0935 8.7335 10.7335 11.0935 10.7335 14.0002V20.6002Z" fill="#333436"/>
<path d="M24.6668 20.6002H7.3335V22.0668H24.6668V20.6002Z" fill="#333436"/>
<path d="M16.0002 26.0668C14.4935 26.0668 13.2668 24.8402 13.2668 23.3335V21.3335C13.2668 20.9268 13.5935 20.6002 14.0002 20.6002H18.0002C18.4068 20.6002 18.7335 20.9268 18.7335 21.3335V23.3335C18.7335 24.8402 17.5068 26.0668 16.0002 26.0668ZM14.7335 22.0668V23.3335C14.7335 24.0335 15.3002 24.6002 16.0002 24.6002C16.7002 24.6002 17.2668 24.0335 17.2668 23.3335V22.0668H14.7335Z" fill="#333436"/>
<path d="M16.7335 5.3335H15.2668V8.00016H16.7335V5.3335Z" fill="#333436"/>
</g>
</g>
</svg>
