<svg width="32" height="33" viewBox="0 0 32 33" fill="none" xmlns="http://www.w3.org/2000/svg">
<g id="open_in_new">
<g id="Vector">
<path d="M21.0013 25.6335H9.8013C8.07464 25.6335 6.66797 24.2268 6.66797 22.5002V11.3002C6.66797 9.5735 8.07464 8.16683 9.8013 8.16683H16.068V9.6335H9.8013C8.8813 9.6335 8.13464 10.3802 8.13464 11.3002V22.5002C8.13464 23.4202 8.8813 24.1668 9.8013 24.1668H21.0013C21.9213 24.1668 22.668 23.4202 22.668 22.5002V16.2335H24.1346V22.5002C24.1346 24.2268 22.728 25.6335 21.0013 25.6335Z" fill="#838486"/>
<path d="M23.9233 7.33529L16.3809 14.8778L17.4179 15.9149L24.9604 8.37238L23.9233 7.33529Z" fill="#838486"/>
<path d="M25.331 13.7333L23.8643 13.6999L23.9976 8.37326L23.911 7.57326L23.931 8.3066L18.6043 8.43993L18.571 6.97326L23.891 6.83326C24.3176 6.81993 24.7176 6.9866 25.011 7.27993C25.3043 7.57326 25.471 7.9866 25.4576 8.39993L25.3243 13.7266L25.331 13.7333Z" fill="#838486"/>
</g>
</g>
</svg>
