<svg width="32" height="32" viewBox="0 0 32 32" fill="none" xmlns="http://www.w3.org/2000/svg">
<g id="Shape">
<g id="Vector">
<path d="M21.6668 26.1331H10.4668C8.74016 26.1331 7.3335 24.7265 7.3335 22.9998V9.13312C7.3335 7.40646 8.74016 5.99979 10.4668 5.99979H18.7335C18.9268 5.99979 19.1135 6.07979 19.2535 6.21312L24.5868 11.5465C24.7268 11.6865 24.8002 11.8731 24.8002 12.0665V22.9998C24.8002 24.7265 23.3935 26.1331 21.6668 26.1331ZM10.4668 7.46646C9.54683 7.46646 8.80016 8.21312 8.80016 9.13312V22.9998C8.80016 23.9198 9.54683 24.6665 10.4668 24.6665H21.6668C22.5868 24.6665 23.3335 23.9198 23.3335 22.9998V12.3731L18.4268 7.46646H10.4668Z" fill="#333436"/>
<path d="M24.0668 12.7998H19.5335C18.6868 12.7998 18.0002 12.1131 18.0002 11.2665V6.73312C18.0002 6.43312 18.1802 6.16646 18.4535 6.05312C18.7268 5.93979 19.0402 5.99979 19.2535 6.21312L24.5868 11.5465C24.8002 11.7531 24.8602 12.0731 24.7468 12.3465C24.6335 12.6198 24.3668 12.7998 24.0668 12.7998ZM19.4668 8.49979V11.2598C19.4668 11.2998 19.4935 11.3265 19.5335 11.3265H22.2935L19.4602 8.49312L19.4668 8.49979Z" fill="#333436"/>
</g>
</g>
</svg>
