<svg width="32" height="32" viewBox="0 0 32 32" fill="none" xmlns="http://www.w3.org/2000/svg">
<g id="Shape">
<g id="Vector">
<path d="M14.3998 22.1332C10.1332 22.1332 6.6665 18.6665 6.6665 14.3998C6.6665 10.1332 10.1332 6.6665 14.3998 6.6665C18.6665 6.6665 22.1332 10.1332 22.1332 14.3998C22.1332 18.6665 18.6665 22.1332 14.3998 22.1332ZM14.3998 8.13317C10.9465 8.13317 8.13317 10.9465 8.13317 14.3998C8.13317 17.8532 10.9465 20.6665 14.3998 20.6665C17.8532 20.6665 20.6665 17.8532 20.6665 14.3998C20.6665 10.9465 17.8532 8.13317 14.3998 8.13317Z" fill="#333436"/>
<path d="M19.9158 18.8798L18.8787 19.9169L24.2103 25.2485L25.2474 24.2114L19.9158 18.8798Z" fill="#333436"/>
</g>
</g>
</svg>
