<svg width="32" height="32" viewBox="0 0 32 32" fill="none" xmlns="http://www.w3.org/2000/svg">
<g id="Shape">
<g id="Vector">
<path d="M16.0668 5.33398C10.1468 5.33398 5.3335 10.1473 5.3335 16.0673C5.3335 21.9873 10.1468 26.8007 16.0668 26.8007C21.9868 26.8007 26.8002 21.9873 26.8002 16.0673C26.8002 10.1473 21.9868 5.33398 16.0668 5.33398ZM16.0668 25.334C10.9535 25.334 6.80016 21.174 6.80016 16.0673C6.80016 10.9607 10.9535 6.80065 16.0668 6.80065C21.1802 6.80065 25.3335 10.954 25.3335 16.0673C25.3335 21.1807 21.1735 25.334 16.0668 25.334Z" fill="#00B840"/>
<path d="M16.0668 6.80065C10.9535 6.80065 6.80016 10.954 6.80016 16.0673C6.80016 21.1807 10.9535 25.334 16.0668 25.334C21.1802 25.334 25.3335 21.174 25.3335 16.0673C25.3335 10.9607 21.1735 6.80065 16.0668 6.80065ZM15.5735 19.5673C15.2868 19.8607 14.9002 20.014 14.4935 20.014H14.4668C14.0468 20.0073 13.6602 19.834 13.3668 19.5273L10.1935 16.1007L11.2735 15.1007L14.4468 18.5273L14.5002 18.574L20.8802 12.214L21.9202 13.254L15.5735 19.5673Z" fill="#00B840"/>
</g>
</g>
</svg>
