<svg width="32" height="32" viewBox="0 0 32 32" fill="none" xmlns="http://www.w3.org/2000/svg">
<g id="Shape">
<g id="Vector">
<path fill-rule="evenodd" clip-rule="evenodd" d="M16.0668 8.13308C14.2627 8.13308 12.8002 9.59562 12.8002 11.3997C12.8002 13.2039 14.2627 14.6664 16.0668 14.6664C17.871 14.6664 19.3335 13.2039 19.3335 11.3997C19.3335 9.59562 17.871 8.13308 16.0668 8.13308ZM11.3335 11.3997C11.3335 8.7856 13.4527 6.66641 16.0668 6.66641C18.681 6.66641 20.8002 8.7856 20.8002 11.3997C20.8002 14.0139 18.681 16.1331 16.0668 16.1331C13.4527 16.1331 11.3335 14.0139 11.3335 11.3997Z" fill="#333436"/>
<path fill-rule="evenodd" clip-rule="evenodd" d="M7.3335 21.1331C7.3335 19.3947 8.72849 17.9997 10.4668 17.9997H21.6668C23.4052 17.9997 24.8002 19.3947 24.8002 21.1331V24.7331H23.3335V21.1331C23.3335 20.2048 22.5952 19.4664 21.6668 19.4664H10.4668C9.53851 19.4664 8.80016 20.2048 8.80016 21.1331V24.7331H7.3335V21.1331Z" fill="#333436"/>
</g>
</g>
</svg>
