<svg width="32" height="32" viewBox="0 0 32 32" fill="none" xmlns="http://www.w3.org/2000/svg">
<path d="M24.1799 17.44C23.5933 18.0467 20.2333 21.42 18.2733 23.3733C17.6866 23.9667 16.8999 24.2933 16.0599 24.2933C15.2199 24.2933 14.4399 23.9667 13.8466 23.3733C11.8933 21.42 8.52658 18.04 7.94658 17.44C6.17992 15.62 5.59992 13.54 6.26658 11.4133C6.91992 9.3 8.73325 7.72667 10.8866 7.4C12.8399 7.10667 14.7733 7.81333 16.0599 9.23333C17.3533 7.81333 19.2866 7.10667 21.2399 7.4C23.3866 7.72667 25.2066 9.3 25.8599 11.4133C26.5199 13.54 25.9399 15.62 24.1799 17.44Z" fill="#333436"/>
</svg>
